<?xml version="1.0" standalone="no"?>
<!DOCTYPE svg PUBLIC "-//W3C//DTD SVG 20010904//EN"
 "http://www.w3.org/TR/2001/REC-SVG-20010904/DTD/svg10.dtd">
<svg version="1.0" xmlns="http://www.w3.org/2000/svg"
 width="902.000000pt" height="1280.000000pt" viewBox="0 0 902.000000 1280.000000"
 preserveAspectRatio="xMidYMid meet">

<g transform="translate(0.000000,1280.000000) scale(0.100000,-0.100000)"
fill="#000000" stroke="none">
<path d="M9013 10480 c0 -47 2 -66 4 -42 2 23 2 61 0 85 -2 23 -4 4 -4 -43z"/>
<path d="M5005 10342 c-85 -10 -220 -15 -343 -15 -115 1 -200 -3 -197 -8 3 -4
24 -14 45 -20 22 -7 40 -15 40 -19 0 -4 -26 -13 -57 -20 -161 -35 -193 -43
-258 -63 -38 -12 -76 -27 -83 -34 -7 -7 -19 -13 -25 -13 -34 0 -333 -170 -378
-214 -9 -9 -19 -16 -23 -16 -4 0 -45 -33 -92 -72 -124 -107 -140 -120 -244
-184 -149 -91 -168 -107 -337 -292 -46 -51 -113 -152 -113 -172 0 -9 -12 -30
-26 -46 -27 -31 -58 -93 -50 -101 2 -3 11 8 20 24 14 25 15 26 16 6 0 -12 -7
-29 -16 -37 -8 -9 -12 -20 -9 -26 3 -6 -9 -43 -29 -83 -29 -60 -39 -89 -51
-137 -1 -3 -5 -12 -8 -20 -9 -22 -57 -213 -57 -229 0 -10 3 -11 13 -2 11 8 16
5 26 -15 6 -14 9 -29 7 -33 -3 -4 -7 -38 -9 -76 -3 -39 -3 -62 0 -52 2 9 8 17
13 17 15 0 22 -66 13 -112 -6 -24 -6 -53 -2 -63 5 -14 8 -15 9 -5 0 13 2 13 9
0 8 -14 8 -53 -5 -310 -5 -111 7 -176 55 -300 11 -30 26 -93 32 -140 7 -47 16
-90 20 -96 5 -5 6 -21 3 -35 -4 -17 -3 -20 4 -10 11 15 19 6 26 -31 5 -32 32
-74 51 -82 20 -7 57 26 50 45 -3 8 -20 23 -36 33 -66 39 -97 96 -98 180 -1 46
0 48 14 30 8 -10 15 -34 15 -53 0 -54 39 -95 117 -125 38 -15 87 -39 110 -55
24 -16 63 -32 88 -35 30 -5 45 -12 45 -22 0 -19 -46 -37 -68 -25 -9 5 -39 12
-65 16 l-48 7 31 -57 c17 -32 37 -64 45 -71 18 -18 75 -18 75 -1 0 8 9 22 20
32 34 30 25 -7 -10 -41 -16 -16 -30 -35 -30 -41 0 -19 -41 -40 -72 -38 -16 1
-38 13 -52 30 -15 17 -30 26 -39 22 -21 -8 -53 41 -38 56 18 18 13 27 -14 25
-16 -2 -24 -7 -20 -15 16 -41 14 -43 -9 -8 -29 44 -35 32 -10 -18 28 -54 52
-79 126 -129 82 -55 131 -62 198 -28 37 19 40 19 40 3 0 -10 14 -88 31 -173
l30 -155 -16 -145 c-19 -171 -53 -373 -100 -605 -3 -13 -23 -30 -57 -45 -63
-30 -82 -56 -132 -183 -26 -63 -55 -116 -93 -163 -30 -38 -75 -109 -99 -159
-25 -49 -64 -118 -87 -152 -38 -57 -46 -63 -106 -84 -74 -24 -135 -53 -169
-79 -12 -10 -75 -34 -140 -55 -64 -20 -135 -42 -157 -50 -22 -7 -94 -30 -160
-50 -139 -43 -468 -170 -505 -195 -14 -10 -45 -28 -70 -40 -25 -12 -61 -35
-80 -50 -19 -15 -51 -35 -70 -46 -19 -10 -55 -34 -79 -52 -39 -28 -418 -220
-565 -285 -115 -51 -623 -310 -641 -327 -11 -10 -37 -25 -57 -34 l-38 -15 0
-1890 0 -1891 4510 0 4510 0 -2 5028 -3 5027 -5 -4183 -5 -4184 -29 59 c-27
52 -54 103 -158 293 -17 30 -47 84 -68 120 -21 36 -59 108 -85 160 -26 52 -58
109 -71 126 -13 17 -24 33 -24 36 0 7 -189 391 -329 668 -140 276 -244 458
-297 523 -13 16 -24 37 -24 47 0 19 -30 46 -125 113 -57 40 -182 117 -190 117
-2 0 -53 23 -112 51 -59 28 -135 64 -168 79 -33 15 -95 44 -137 64 -43 20 -80
36 -82 36 -3 0 -33 13 -68 29 -35 16 -124 55 -198 86 -319 136 -378 174 -465
302 -20 29 -46 60 -58 68 -65 46 -95 66 -122 81 -50 29 -210 83 -399 135 -190
53 -196 55 -196 71 0 5 -23 62 -51 126 -81 184 -109 264 -109 307 0 53 27 286
41 355 10 50 20 66 111 165 156 171 289 372 359 540 17 40 31 60 49 67 87 33
114 54 154 118 23 36 71 119 105 185 73 138 106 187 214 318 72 88 78 100 87
158 18 120 21 129 35 129 7 0 21 23 31 53 9 28 23 61 29 72 7 11 23 63 35 115
12 52 26 102 31 110 5 8 15 30 24 48 14 32 16 33 31 17 16 -16 18 -12 34 50 9
37 21 70 26 73 5 4 15 18 21 32 l12 25 0 -24 c2 -64 61 58 61 126 0 50 21 174
36 213 7 19 16 57 19 84 6 44 5 49 -9 37 -13 -11 -14 -2 -9 89 4 64 1 132 -7
185 -11 74 -11 85 4 106 16 23 16 23 17 -21 1 -25 4 -56 8 -70 6 -22 8 -19 13
20 3 25 5 97 4 160 -1 94 -5 121 -21 150 -11 19 -23 37 -27 38 -5 2 -8 8 -8
13 0 6 -12 35 -27 64 -23 49 -27 53 -39 37 -11 -15 -13 -14 -20 13 -4 17 -22
48 -41 71 -18 23 -33 46 -33 52 0 6 -22 27 -50 47 -52 38 -60 52 -35 61 16 7
48 64 35 64 -4 0 -10 -7 -14 -15 -3 -8 -12 -15 -20 -15 -7 0 -16 -7 -20 -15
-3 -8 -12 -15 -20 -15 -7 0 -16 7 -20 15 -3 8 -13 15 -22 15 -10 0 -14 6 -11
14 4 9 -3 16 -19 20 -13 4 -24 11 -24 16 0 6 -7 10 -15 10 -8 0 -15 7 -15 15
0 9 -9 15 -22 15 -18 0 -14 5 19 23 22 12 58 38 80 58 50 45 84 140 76 212 -3
26 -1 47 4 47 16 0 33 -23 33 -46 0 -13 4 -25 9 -28 5 -3 9 10 9 29 0 24 -5
35 -14 35 -8 0 -24 15 -35 34 -11 19 -28 36 -39 39 -10 2 -27 21 -37 41 l-19
36 1 -55 c1 -38 7 -61 18 -72 9 -10 17 -12 17 -6 0 6 -7 16 -15 23 -16 13 -20
40 -6 40 4 0 20 -11 35 -25 28 -26 30 -55 6 -110 -4 -11 -12 -29 -16 -40 -7
-19 -8 -19 -11 2 -2 12 -11 27 -20 35 -14 11 -15 8 -8 -29 6 -38 3 -47 -26
-88 -18 -25 -40 -45 -51 -45 -29 0 -21 22 22 61 22 20 40 43 40 50 0 7 -7 3
-16 -9 -21 -30 -36 -28 -22 3 6 14 16 25 21 25 6 0 7 3 4 6 -4 4 1 20 10 35
16 27 18 27 35 12 16 -14 18 -14 18 -1 0 8 -25 41 -55 72 -51 52 -69 86 -45
86 6 0 14 -10 19 -22 6 -17 9 -18 14 -5 7 19 -5 30 -66 56 -26 11 -47 26 -47
33 -1 14 -66 48 -93 48 -9 0 -19 5 -22 10 -3 6 -17 10 -30 10 -13 0 -27 5 -30
10 -4 6 17 10 57 10 51 1 59 3 44 12 -12 7 -39 8 -75 3 -68 -9 -72 -9 -295 -5
l-179 4 -85 43 c-110 56 -190 79 -342 98 -148 18 -218 17 -405 -3z m454 -23
c75 -12 169 -42 220 -70 l36 -20 -90 6 c-49 4 -116 13 -148 21 -50 13 -115 24
-237 40 -19 3 -93 8 -165 12 -103 5 -120 8 -80 13 84 10 396 9 464 -2z m844
-176 c15 -8 50 -17 76 -20 32 -4 52 -12 60 -24 10 -18 9 -19 -14 -13 -15 4
-25 2 -25 -5 0 -6 7 -11 15 -11 8 0 15 -5 15 -11 0 -7 -8 -6 -23 4 -12 8 -37
18 -55 21 -17 4 -32 14 -32 21 0 8 -17 16 -42 20 -70 10 -137 28 -133 35 7 11
129 -2 158 -17z m77 -225 c0 -21 -16 -24 -23 -5 -2 6 -2 20 1 30 4 15 7 16 13
5 5 -7 9 -21 9 -30z m37 10 c-3 -8 -6 -5 -6 6 -1 11 2 17 5 13 3 -3 4 -12 1
-19z m134 -10 c11 -21 11 -22 -4 -9 -10 7 -17 17 -17 22 0 15 9 10 21 -13z
m-100 -31 c-6 -15 -16 -27 -22 -27 -7 0 -8 7 -4 18 4 9 10 25 12 35 4 11 9 15
15 9 5 -5 5 -20 -1 -35z m39 -17 c0 -11 -8 -24 -18 -29 -17 -9 -18 -7 -8 24
11 35 26 38 26 5z m76 -6 c-3 -9 -6 -20 -6 -25 0 -5 -4 -9 -9 -9 -4 0 -6 11
-3 25 2 14 9 25 14 25 6 0 7 -7 4 -16z m-42 -35 c-8 -17 -17 -29 -20 -27 -8 8
18 68 27 62 5 -3 2 -19 -7 -35z m16 -16 c0 -5 -10 -19 -21 -33 l-21 -25 18 33
c18 32 24 38 24 25z m130 -4 c0 -18 -33 -83 -46 -91 -6 -4 -31 -24 -54 -43
-23 -19 -46 -35 -51 -35 -19 0 -8 19 24 39 17 11 28 21 23 21 -5 0 12 20 38
45 25 25 46 52 46 60 0 8 5 15 10 15 6 0 10 -5 10 -11z m-215 -129 c-3 -5 -13
-10 -21 -10 -8 0 -12 5 -9 10 3 6 13 10 21 10 8 0 12 -4 9 -10z m95 -190 c0
-5 -4 -10 -9 -10 -6 0 -13 5 -16 10 -3 6 1 10 9 10 9 0 16 -4 16 -10z m54 -16
c9 -3 16 -10 16 -14 0 -10 -38 -1 -46 11 -6 10 7 12 30 3z m118 -90 c22 -10
41 -31 56 -61 12 -25 20 -48 17 -51 -6 -7 -44 40 -45 55 0 7 -18 24 -40 38
-59 37 -51 49 12 19z m122 -160 c24 -23 19 -27 -9 -8 -14 9 -25 18 -25 20 0
10 20 3 34 -12z m46 -174 c0 -5 6 -7 14 -4 10 4 12 -2 9 -20 -3 -15 -1 -32 5
-39 14 -17 19 -81 7 -85 -5 -1 -13 14 -16 35 -4 21 -13 57 -22 81 -9 23 -12
42 -7 42 6 0 10 -4 10 -10z m-1580 -579 c0 -19 -20 -22 -36 -7 -14 15 -13 16
10 16 14 0 26 -4 26 -9z m-72 -51 c11 -18 10 -20 -13 -20 -18 0 -25 5 -25 20
0 11 6 20 13 20 7 0 18 -9 25 -20z m-2358 -346 c0 -9 -32 -33 -44 -34 -5 0 -1
9 9 20 18 20 35 26 35 14z m1450 -4 c0 -5 -2 -10 -4 -10 -3 0 -8 5 -11 10 -3
6 -1 10 4 10 6 0 11 -4 11 -10z m-712 -91 c25 -21 49 -39 55 -39 5 0 34 -12
64 -26 56 -28 83 -58 60 -67 -7 -3 -5 -6 6 -6 9 -1 17 -5 17 -9 0 -5 16 -16
36 -25 19 -10 32 -22 29 -27 -9 -14 25 -46 58 -54 18 -4 27 -13 27 -27 0 -11
8 -22 18 -26 18 -7 104 -63 112 -75 5 -7 72 -16 121 -17 14 -1 39 -13 54 -27
24 -22 27 -29 16 -46 -6 -10 -9 -23 -6 -28 7 -12 75 -10 75 2 0 4 11 8 25 8
14 0 25 -2 25 -5 0 -19 -45 -103 -53 -98 -6 4 -8 -5 -5 -21 4 -20 0 -31 -16
-42 l-21 -15 23 -16 c12 -8 22 -23 22 -32 0 -9 7 -27 16 -39 19 -28 11 -102
-12 -102 -8 0 -14 -7 -14 -17 0 -9 3 -14 6 -10 9 8 44 -25 45 -43 0 -10 3 -9
10 5 l9 20 -3 -20 c-2 -13 -9 -19 -20 -17 -25 4 -21 -12 6 -23 15 -7 21 -18
19 -34 -2 -19 1 -22 19 -18 16 4 23 0 26 -14 4 -15 8 -17 14 -8 4 7 6 -6 4
-28 -3 -30 0 -45 14 -57 20 -18 18 -58 -5 -77 -8 -6 -14 -8 -14 -4 0 4 -14 -5
-31 -19 -17 -14 -35 -26 -40 -26 -6 0 -7 -4 -4 -10 3 -5 0 -7 -8 -4 -8 3 -18
0 -22 -6 -4 -6 -16 -8 -27 -4 -20 6 -92 -20 -115 -43 -23 -21 -75 -27 -88 -9
-7 9 -20 16 -29 16 -10 0 -16 8 -16 25 0 14 -4 25 -9 25 -5 0 -12 11 -15 25
-5 21 -12 25 -41 25 -24 0 -35 5 -35 14 0 8 5 16 12 18 6 2 -18 2 -53 0 l-65
-4 -14 40 c-8 26 -11 62 -7 97 l6 55 -27 -6 c-15 -3 -33 -7 -39 -10 -21 -6
-17 105 4 128 13 14 13 18 2 18 -8 0 -19 -10 -24 -22 -18 -40 -31 -29 -45 37
-7 36 -17 65 -22 65 -4 0 -8 -4 -8 -10 0 -5 -4 -10 -9 -10 -4 0 -6 23 -3 50 4
49 4 50 -22 50 -17 0 -26 5 -26 15 0 9 -11 27 -25 40 -13 14 -19 25 -12 25 7
0 4 6 -5 14 -10 7 -18 26 -18 41 0 23 -2 25 -15 15 -18 -15 -33 -6 -46 27 -5
13 -13 22 -18 19 -16 -10 -42 6 -39 24 2 10 -23 45 -61 86 l-63 68 6 50 c14
114 30 188 43 193 7 3 17 22 23 43 6 22 20 50 33 65 19 23 27 25 67 19 32 -4
56 -17 88 -45z m-701 -341 c-3 -7 -5 -2 -5 12 0 14 2 19 5 13 2 -7 2 -19 0
-25z m44 -49 c-6 -16 -10 -18 -10 -7 -1 22 12 55 16 42 2 -6 -1 -22 -6 -35z
m2023 -118 c4 -1 6 -10 3 -21 -3 -13 1 -21 14 -25 20 -7 41 -38 44 -65 0 -8 5
-41 9 -73 11 -80 -16 -137 -55 -116 -10 5 -20 5 -23 1 -2 -4 -17 -8 -33 -7
-20 0 -28 5 -27 18 1 9 -5 17 -13 17 -8 0 -22 7 -30 16 -10 10 -27 14 -45 12
-16 -3 -33 1 -39 8 -8 10 4 27 48 68 32 31 64 56 72 56 9 0 12 8 8 26 -2 15
-1 41 4 59 7 25 14 31 32 29 12 -1 26 -3 31 -3z m-248 -225 c23 -16 24 -39 6
-73 -8 -14 -18 -20 -27 -17 -8 4 -23 3 -32 -1 -35 -15 -93 -17 -94 -3 -3 26 3
40 24 65 37 43 86 54 123 29z m-1 -546 c3 -6 -2 -13 -12 -16 -10 -3 -26 -10
-36 -15 -10 -6 -26 -7 -37 -4 -10 3 -24 0 -32 -7 -20 -19 -55 -37 -60 -32 -3
2 -3 15 -1 29 4 19 14 26 50 33 24 6 53 8 64 5 10 -3 19 0 19 6 0 14 37 15 45
1z m-1458 -1042 c-3 -8 -6 -5 -6 6 -1 11 2 17 5 13 3 -3 4 -12 1 -19z m-10
-40 c-3 -8 -6 -5 -6 6 -1 11 2 17 5 13 3 -3 4 -12 1 -19z m103 -4478 c0 -5
-22 -7 -52 -3 -72 8 -73 13 -5 13 32 0 57 -4 57 -10z m-71 -73 c8 -10 7 -17
-1 -25 -19 -19 -28 -14 -28 13 0 27 12 32 29 12z m71 -35 c0 -38 -86 -125
-100 -102 -5 8 -10 21 -10 29 0 15 86 101 101 101 5 0 9 -13 9 -28z m10 -86
c0 -39 -10 -55 -57 -91 -48 -37 -63 -37 -63 -3 0 20 93 118 112 118 4 0 8 -11
8 -24z m0 -107 c0 -24 -10 -41 -47 -75 -53 -48 -66 -50 -71 -12 -2 20 8 35 50
72 29 25 56 46 60 46 5 0 8 -14 8 -31z m0 -93 c0 -32 -12 -39 -36 -21 -19 13
-19 14 1 29 28 21 35 20 35 -8z"/>
<path d="M3760 7870 c0 -5 5 -10 11 -10 5 0 7 5 4 10 -3 6 -8 10 -11 10 -2 0
-4 -4 -4 -10z"/>
<path d="M3681 7314 c0 -11 3 -14 6 -6 3 7 2 16 -1 19 -3 4 -6 -2 -5 -13z"/>
<path d="M4341 7184 c0 -11 3 -14 6 -6 3 7 2 16 -1 19 -3 4 -6 -2 -5 -13z"/>
<path d="M9012 10340 c0 -14 2 -19 5 -12 2 6 2 18 0 25 -3 6 -5 1 -5 -13z"/>
<path d="M9013 10200 c0 -25 2 -35 4 -22 2 12 2 32 0 45 -2 12 -4 2 -4 -23z"/>
<path d="M6452 10182 c26 -11 63 -30 83 -42 20 -12 38 -20 41 -17 7 6 -12 43
-20 40 -3 -1 -22 5 -43 13 -20 9 -53 18 -72 20 -35 5 -34 4 11 -14z"/>
<path d="M6600 10127 c0 -8 7 -17 15 -21 8 -3 15 -2 15 3 0 5 -7 14 -15 21
-12 10 -15 10 -15 -3z"/>
<path d="M6685 10070 c10 -11 20 -20 22 -20 2 0 -1 9 -7 20 -6 11 -16 20 -22
20 -6 0 -3 -9 7 -20z"/>
<path d="M6752 9810 c0 -19 2 -27 5 -17 2 9 2 25 0 35 -3 9 -5 1 -5 -18z"/>
<path d="M6716 9792 c-4 -13 -5 -26 -2 -29 10 -11 18 4 14 29 l-4 23 -8 -23z"/>
<path d="M6735 9740 c-4 -12 -5 -24 -2 -27 3 -2 8 5 12 17 4 12 5 24 2 27 -3
2 -8 -5 -12 -17z"/>
<path d="M6712 9685 c0 -16 2 -22 5 -12 2 9 2 23 0 30 -3 6 -5 -1 -5 -18z"/>
<path d="M6655 9670 c-3 -5 -1 -10 4 -10 6 0 11 5 11 10 0 6 -2 10 -4 10 -3 0
-8 -4 -11 -10z"/>
<path d="M6590 9605 c0 -8 7 -15 15 -15 8 0 15 7 15 15 0 8 -7 15 -15 15 -8 0
-15 -7 -15 -15z"/>
<path d="M6648 9513 c7 -3 16 -2 19 1 4 3 -2 6 -13 5 -11 0 -14 -3 -6 -6z"/>
<path d="M6950 9195 c0 -8 4 -15 10 -15 5 0 7 7 4 15 -4 8 -8 15 -10 15 -2 0
-4 -7 -4 -15z"/>
<path d="M7016 8872 c-3 -6 -1 -14 5 -17 14 -9 20 -2 10 14 -6 8 -11 9 -15 3z"/>
<path d="M7028 8814 c-8 -7 2 -44 12 -44 4 0 5 11 2 25 -5 27 -6 28 -14 19z"/>
<path d="M7024 8714 c3 -9 6 -23 6 -32 0 -12 3 -13 11 -5 13 13 3 53 -13 53
-5 0 -7 -7 -4 -16z"/>
<path d="M7031 8574 c0 -11 3 -14 6 -6 3 7 2 16 -1 19 -3 4 -6 -2 -5 -13z"/>
<path d="M6992 8540 c0 -14 2 -19 5 -12 2 6 2 18 0 25 -3 6 -5 1 -5 -13z"/>
<path d="M2920 7253 c0 -15 42 -124 46 -120 4 4 -35 119 -42 126 -2 2 -4 -1
-4 -6z"/>
</g>
</svg>
